TITLE ""
FILE "2Q_t_0501-0517.mp3" MP3
  TRACK 01 AUDIO
    TITLE "2Q_t_0501-0517_01"
    INDEX 01 00:00:00
  TRACK 02 AUDIO
    TITLE "2Q_t_0501-0517_02"
    INDEX 01 00:00:10
  TRACK 03 AUDIO
    TITLE "2Q_t_0501-0517_03"
    INDEX 01 00:03:38
  TRACK 04 AUDIO
    TITLE "2Q_t_0501-0517_04"
    INDEX 01 00:04:45
  TRACK 05 AUDIO
    TITLE "2Q_t_0501-0517_05"
    INDEX 01 00:06:11
  TRACK 06 AUDIO
    TITLE "2Q_t_0501-0517_06"
    INDEX 01 00:06:56
  TRACK 07 AUDIO
    TITLE "2Q_t_0501-0517_07"
    INDEX 01 00:07:59
  TRACK 08 AUDIO
    TITLE "2Q_t_0501-0517_08"
    INDEX 01 00:08:29
  TRACK 09 AUDIO
    TITLE "2Q_t_0501-0517_09"
    INDEX 01 00:09:37
  TRACK 10 AUDIO
    TITLE "2Q_t_0501-0517_10"
    INDEX 01 00:10:07
  TRACK 11 AUDIO
    TITLE "2Q_t_0501-0517_11"
    INDEX 01 00:11:18
  TRACK 12 AUDIO
    TITLE "2Q_t_0501-0517_12"
    INDEX 01 00:11:61
  TRACK 13 AUDIO
    TITLE "2Q_t_0501-0517_13"
    INDEX 01 00:13:07
  TRACK 14 AUDIO
    TITLE "2Q_t_0501-0517_14"
    INDEX 01 00:13:52
  TRACK 15 AUDIO
    TITLE "2Q_t_0501-0517_15"
    INDEX 01 00:19:08
  TRACK 16 AUDIO
    TITLE "2Q_t_0501-0517_16"
    INDEX 01 00:19:55
  TRACK 17 AUDIO
    TITLE "2Q_t_0501-0517_17"
    INDEX 01 00:20:74
  TRACK 18 AUDIO
    TITLE "2Q_t_0501-0517_18"
    INDEX 01 00:21:46
  TRACK 19 AUDIO
    TITLE "2Q_t_0501-0517_19"
    INDEX 01 00:24:66
  TRACK 20 AUDIO
    TITLE "2Q_t_0501-0517_20"
    INDEX 01 00:25:36
  TRACK 21 AUDIO
    TITLE "2Q_t_0501-0517_21"
    INDEX 01 00:26:43
  TRACK 22 AUDIO
    TITLE "2Q_t_0501-0517_22"
    INDEX 01 00:27:13
  TRACK 23 AUDIO
    TITLE "2Q_t_0501-0517_23"
    INDEX 01 00:30:54
  TRACK 24 AUDIO
    TITLE "2Q_t_0501-0517_24"
    INDEX 01 00:31:23
  TRACK 25 AUDIO
    TITLE "2Q_t_0501-0517_25"
    INDEX 01 00:32:26
  TRACK 26 AUDIO
    TITLE "2Q_t_0501-0517_26"
    INDEX 01 00:32:71
  TRACK 27 AUDIO
    TITLE "2Q_t_0501-0517_27"
    INDEX 01 00:35:11
  TRACK 28 AUDIO
    TITLE "2Q_t_0501-0517_28"
    INDEX 01 00:35:56
  TRACK 29 AUDIO
    TITLE "2Q_t_0501-0517_29"
    INDEX 01 00:36:63
  TRACK 30 AUDIO
    TITLE "2Q_t_0501-0517_30"
    INDEX 01 00:37:35
  TRACK 31 AUDIO
    TITLE "2Q_t_0501-0517_31"
    INDEX 01 00:39:75
  TRACK 32 AUDIO
    TITLE "2Q_t_0501-0517_32"
    INDEX 01 00:40:43
  TRACK 33 AUDIO
    TITLE "2Q_t_0501-0517_33"
    INDEX 01 00:41:66
  TRACK 34 AUDIO
    TITLE "2Q_t_0501-0517_34"
    INDEX 01 00:42:38
  TRACK 35 AUDIO
    TITLE "2Q_t_0501-0517_35"
    INDEX 01 00:45:33
  TRACK 36 AUDIO
    TITLE "2Q_t_0501-0517_36"
    INDEX 01 00:46:03
  TRACK 37 AUDIO
    TITLE "2Q_t_0501-0517_37"
    INDEX 01 00:47:27
  TRACK 38 AUDIO
    TITLE "2Q_t_0501-0517_38"
    INDEX 01 00:47:75
  TRACK 39 AUDIO
    TITLE "2Q_t_0501-0517_39"
    INDEX 01 00:50:36
  TRACK 40 AUDIO
    TITLE "2Q_t_0501-0517_40"
    INDEX 01 00:51:06
  TRACK 41 AUDIO
    TITLE "2Q_t_0501-0517_41"
    INDEX 01 00:52:25
  TRACK 42 AUDIO
    TITLE "2Q_t_0501-0517_42"
    INDEX 01 00:52:70
  TRACK 43 AUDIO
    TITLE "2Q_t_0501-0517_43"
    INDEX 01 00:56:58
  TRACK 44 AUDIO
    TITLE "2Q_t_0501-0517_44"
    INDEX 01 00:57:26
  TRACK 45 AUDIO
    TITLE "2Q_t_0501-0517_45"
    INDEX 01 00:58:23
  TRACK 46 AUDIO
    TITLE "2Q_t_0501-0517_46"
    INDEX 01 00:59:01
  TRACK 47 AUDIO
    TITLE "2Q_t_0501-0517_47"
    INDEX 01 01:01:28
  TRACK 48 AUDIO
    TITLE "2Q_t_0501-0517_48"
    INDEX 01 01:01:71
  TRACK 49 AUDIO
    TITLE "2Q_t_0501-0517_49"
    INDEX 01 01:02:74
  TRACK 50 AUDIO
    TITLE "2Q_t_0501-0517_50"
    INDEX 01 01:03:46
  TRACK 51 AUDIO
    TITLE "2Q_t_0501-0517_51"
    INDEX 01 01:05:10
  TRACK 52 AUDIO
    TITLE "2Q_t_0501-0517_52"
    INDEX 01 01:05:55
  TRACK 53 AUDIO
    TITLE "2Q_t_0501-0517_53"
    INDEX 01 01:06:72
  TRACK 54 AUDIO
    TITLE "2Q_t_0501-0517_54"
    INDEX 01 01:07:46
  TRACK 55 AUDIO
    TITLE "2Q_t_0501-0517_55"
    INDEX 01 01:10:03
  TRACK 56 AUDIO
    TITLE "2Q_t_0501-0517_56"
    INDEX 01 01:10:48
  TRACK 57 AUDIO
    TITLE "2Q_t_0501-0517_57"
    INDEX 01 01:12:08
  TRACK 58 AUDIO
    TITLE "2Q_t_0501-0517_58"
    INDEX 01 01:12:55
  TRACK 59 AUDIO
    TITLE "2Q_t_0501-0517_59"
    INDEX 01 01:14:20
  TRACK 60 AUDIO
    TITLE "2Q_t_0501-0517_60"
    INDEX 01 01:14:64
  TRACK 61 AUDIO
    TITLE "2Q_t_0501-0517_61"
    INDEX 01 01:15:67
  TRACK 62 AUDIO
    TITLE "2Q_t_0501-0517_62"
    INDEX 01 01:16:41
  TRACK 63 AUDIO
    TITLE "2Q_t_0501-0517_63"
    INDEX 01 01:18:65
  TRACK 64 AUDIO
    TITLE "2Q_t_0501-0517_64"
    INDEX 01 01:19:35
  TRACK 65 AUDIO
    TITLE "2Q_t_0501-0517_65"
    INDEX 01 01:20:68
  TRACK 66 AUDIO
    TITLE "2Q_t_0501-0517_66"
    INDEX 01 01:21:40
  TRACK 67 AUDIO
    TITLE "2Q_t_0501-0517_67"
    INDEX 01 01:24:50
  TRACK 68 AUDIO
    TITLE "2Q_t_0501-0517_68"
    INDEX 01 01:25:20
  TRACK 69 AUDIO
    TITLE "2Q_t_0501-0517_69"
    INDEX 01 01:26:35
  TRACK 70 AUDIO
    TITLE "2Q_t_0501-0517_70"
    INDEX 01 01:27:07
  TRACK 71 AUDIO
    TITLE "2Q_t_0501-0517_71"
    INDEX 01 01:28:28
  TRACK 72 AUDIO
    TITLE "2Q_t_0501-0517_72"
    INDEX 01 01:28:73
  TRACK 73 AUDIO
    TITLE "2Q_t_0501-0517_73"
    INDEX 01 01:30:06
  TRACK 74 AUDIO
    TITLE "2Q_t_0501-0517_74"
    INDEX 01 01:30:51
  TRACK 75 AUDIO
    TITLE "2Q_t_0501-0517_75"
    INDEX 01 01:33:71
